<?xml version="1.0" encoding="UTF-8" standalone="no"?>
<!DOCTYPE svg PUBLIC "-//W3C//DTD SVG 1.1//EN" "http://www.w3.org/Graphics/SVG/1.1/DTD/svg11.dtd">
<svg width="100%" height="100%" viewBox="0 0 2652 1013" version="1.1" xmlns="http://www.w3.org/2000/svg" xmlns:xlink="http://www.w3.org/1999/xlink" xml:space="preserve" xmlns:serif="http://www.serif.com/" style="fill-rule:evenodd;clip-rule:evenodd;stroke-linejoin:round;stroke-miterlimit:2;">
    <g transform="matrix(1,0,0,1,-612.882,-233.591)">
        <g transform="matrix(600,0,0,600,603.282,639.191)">
            <path d="M0.961,-0C0.899,0.004 0.836,0.006 0.771,0.006C0.706,0.006 0.643,0.004 0.58,-0L0.342,-0.333L0.333,-0.333L0.333,-0.183L0.419,-0.183L0.419,-0.144C0.419,-0.131 0.418,-0.117 0.417,-0.104L0.229,-0.104L0.229,-0.565L0.325,-0.565L0.702,-0.078L0.858,-0.078L0.858,-0.564L1.031,-0.564C1.03,-0.548 1.028,-0.532 1.026,-0.516C1.024,-0.501 1.021,-0.486 1.018,-0.473L0.961,-0.473L0.961,-0ZM0.341,-0.59L0.023,-0.59C0.024,-0.601 0.026,-0.612 0.027,-0.623C0.029,-0.634 0.031,-0.645 0.033,-0.656C0.062,-0.657 0.094,-0.658 0.131,-0.659C0.168,-0.66 0.206,-0.66 0.245,-0.66C0.284,-0.66 0.321,-0.66 0.358,-0.659C0.395,-0.658 0.428,-0.657 0.457,-0.656L0.711,-0.314L0.721,-0.314L0.721,-0.473L0.632,-0.473C0.632,-0.488 0.632,-0.503 0.633,-0.518C0.634,-0.533 0.635,-0.549 0.636,-0.564L0.83,-0.564L0.83,-0.103L0.717,-0.103L0.341,-0.59ZM0.022,-0.104C0.023,-0.117 0.025,-0.131 0.026,-0.144C0.028,-0.157 0.03,-0.17 0.032,-0.183L0.093,-0.183L0.093,-0.473L0.016,-0.473C0.017,-0.488 0.017,-0.502 0.018,-0.517C0.019,-0.532 0.02,-0.548 0.021,-0.563L0.201,-0.563L0.201,-0.104L0.022,-0.104ZM0.405,-0C0.379,0.001 0.348,0.002 0.313,0.003C0.278,0.004 0.243,0.005 0.206,0.005C0.17,0.005 0.135,0.004 0.101,0.003C0.068,0.002 0.039,0.001 0.016,-0C0.016,-0.013 0.016,-0.025 0.017,-0.038C0.018,-0.051 0.018,-0.065 0.019,-0.078L0.416,-0.078C0.415,-0.064 0.413,-0.05 0.411,-0.037C0.41,-0.024 0.408,-0.011 0.405,-0ZM1.034,-0.656L1.034,-0.623C1.034,-0.612 1.034,-0.601 1.033,-0.59L0.638,-0.59C0.639,-0.601 0.641,-0.612 0.642,-0.623C0.644,-0.634 0.646,-0.645 0.648,-0.656C0.677,-0.657 0.707,-0.658 0.74,-0.659C0.773,-0.66 0.807,-0.66 0.841,-0.66C0.875,-0.66 0.908,-0.66 0.941,-0.659C0.974,-0.658 1.005,-0.657 1.034,-0.656Z" style="fill:rgb(173,30,22);fill-rule:nonzero;"/>
        </g>
        <g transform="matrix(600,0,0,600,1229.08,639.191)">
            <path d="M0.472,-0.656L0.472,-0.623C0.472,-0.612 0.472,-0.601 0.471,-0.59L0.026,-0.59C0.027,-0.601 0.029,-0.612 0.03,-0.623C0.032,-0.634 0.034,-0.645 0.036,-0.656C0.065,-0.657 0.098,-0.658 0.136,-0.659C0.175,-0.66 0.214,-0.66 0.254,-0.66C0.294,-0.66 0.333,-0.66 0.371,-0.659C0.41,-0.658 0.443,-0.657 0.472,-0.656ZM0.472,-0.183L0.472,-0.144C0.472,-0.131 0.471,-0.117 0.47,-0.104L0.26,-0.104L0.26,-0.565L0.469,-0.565C0.468,-0.548 0.466,-0.532 0.464,-0.516C0.462,-0.501 0.459,-0.486 0.456,-0.473L0.405,-0.473L0.405,-0.183L0.472,-0.183ZM0.023,-0.104C0.024,-0.117 0.026,-0.131 0.027,-0.144C0.029,-0.157 0.031,-0.17 0.033,-0.183L0.094,-0.183L0.094,-0.473L0.019,-0.473C0.02,-0.488 0.02,-0.502 0.021,-0.517C0.022,-0.532 0.023,-0.548 0.024,-0.563L0.232,-0.563L0.232,-0.104L0.023,-0.104ZM0.456,-0C0.429,0.001 0.396,0.002 0.355,0.003C0.315,0.004 0.274,0.005 0.231,0.005C0.189,0.005 0.148,0.004 0.109,0.003C0.07,0.002 0.039,0.001 0.016,-0C0.017,-0.013 0.017,-0.025 0.018,-0.038C0.019,-0.051 0.02,-0.065 0.021,-0.078L0.467,-0.078C0.465,-0.051 0.461,-0.025 0.456,-0Z" style="fill:rgb(173,30,22);fill-rule:nonzero;"/>
        </g>
        <g transform="matrix(600,0,0,600,1521.88,639.191)">
            <path d="M0.826,-0C0.774,0.009 0.719,0.014 0.662,0.016C0.605,0.019 0.545,0.02 0.483,0.02C0.396,0.02 0.322,0.014 0.263,0.003C0.204,-0.008 0.157,-0.027 0.121,-0.052C0.085,-0.078 0.059,-0.112 0.043,-0.153C0.028,-0.195 0.02,-0.246 0.02,-0.307C0.02,-0.378 0.029,-0.437 0.047,-0.484C0.065,-0.531 0.094,-0.569 0.135,-0.597C0.176,-0.626 0.23,-0.646 0.296,-0.658C0.363,-0.67 0.445,-0.676 0.542,-0.676C0.57,-0.676 0.598,-0.675 0.626,-0.674C0.654,-0.673 0.681,-0.671 0.707,-0.669C0.733,-0.667 0.757,-0.665 0.78,-0.662C0.803,-0.659 0.822,-0.657 0.839,-0.654C0.838,-0.595 0.836,-0.543 0.831,-0.497C0.827,-0.451 0.822,-0.409 0.816,-0.372C0.799,-0.371 0.781,-0.37 0.764,-0.369C0.747,-0.369 0.729,-0.369 0.711,-0.368L0.711,-0.572C0.702,-0.575 0.69,-0.577 0.674,-0.578C0.658,-0.58 0.641,-0.581 0.622,-0.582C0.603,-0.583 0.585,-0.584 0.566,-0.584C0.548,-0.585 0.533,-0.585 0.52,-0.585C0.463,-0.585 0.413,-0.581 0.37,-0.572C0.327,-0.563 0.292,-0.549 0.263,-0.529C0.234,-0.509 0.213,-0.483 0.198,-0.45C0.184,-0.418 0.177,-0.378 0.177,-0.33C0.177,-0.281 0.182,-0.241 0.192,-0.208C0.203,-0.175 0.221,-0.149 0.246,-0.129C0.271,-0.11 0.305,-0.096 0.347,-0.087C0.39,-0.079 0.443,-0.075 0.507,-0.075C0.548,-0.075 0.585,-0.076 0.619,-0.077C0.653,-0.079 0.684,-0.083 0.713,-0.088L0.713,-0.283C0.733,-0.283 0.753,-0.283 0.772,-0.282C0.792,-0.281 0.811,-0.28 0.828,-0.279C0.829,-0.264 0.829,-0.244 0.829,-0.221L0.829,-0.146C0.829,-0.12 0.829,-0.094 0.828,-0.068C0.827,-0.042 0.827,-0.019 0.826,-0ZM0.687,-0.109C0.663,-0.106 0.636,-0.103 0.607,-0.102C0.578,-0.101 0.547,-0.1 0.513,-0.1C0.454,-0.1 0.405,-0.103 0.366,-0.109C0.327,-0.116 0.296,-0.127 0.272,-0.144C0.249,-0.161 0.232,-0.185 0.222,-0.215C0.212,-0.245 0.207,-0.284 0.207,-0.331C0.207,-0.374 0.213,-0.41 0.226,-0.439C0.239,-0.468 0.259,-0.492 0.285,-0.509C0.311,-0.527 0.343,-0.54 0.382,-0.547C0.421,-0.554 0.466,-0.558 0.517,-0.558C0.528,-0.558 0.542,-0.558 0.558,-0.557C0.575,-0.557 0.591,-0.557 0.607,-0.556C0.624,-0.555 0.639,-0.554 0.653,-0.553C0.667,-0.552 0.678,-0.551 0.685,-0.549L0.685,-0.368C0.666,-0.368 0.646,-0.368 0.627,-0.369C0.608,-0.37 0.589,-0.371 0.571,-0.372C0.571,-0.391 0.571,-0.409 0.57,-0.425L0.57,-0.471C0.56,-0.472 0.549,-0.472 0.538,-0.472C0.527,-0.473 0.516,-0.473 0.503,-0.473C0.477,-0.473 0.455,-0.47 0.437,-0.465C0.42,-0.46 0.406,-0.451 0.395,-0.439C0.384,-0.428 0.377,-0.413 0.372,-0.395C0.367,-0.378 0.365,-0.357 0.365,-0.333C0.365,-0.302 0.367,-0.276 0.371,-0.255C0.376,-0.234 0.383,-0.218 0.393,-0.205C0.404,-0.193 0.418,-0.184 0.436,-0.179C0.454,-0.174 0.477,-0.171 0.505,-0.171L0.533,-0.171C0.542,-0.172 0.552,-0.172 0.561,-0.173C0.564,-0.196 0.566,-0.217 0.568,-0.235C0.571,-0.253 0.573,-0.268 0.574,-0.279C0.591,-0.28 0.61,-0.281 0.629,-0.281C0.648,-0.282 0.668,-0.282 0.687,-0.283L0.687,-0.109Z" style="fill:rgb(173,30,22);fill-rule:nonzero;"/>
        </g>
        <g transform="matrix(600,0,0,600,2037.28,639.191)">
            <path d="M0.988,-0.656L0.988,-0.623C0.988,-0.612 0.988,-0.601 0.987,-0.59L0.532,-0.59C0.533,-0.601 0.535,-0.612 0.536,-0.623C0.538,-0.634 0.54,-0.645 0.542,-0.656C0.571,-0.657 0.606,-0.658 0.645,-0.659C0.684,-0.66 0.724,-0.66 0.765,-0.66C0.806,-0.66 0.846,-0.66 0.885,-0.659C0.924,-0.658 0.959,-0.657 0.988,-0.656ZM0.483,-0.656L0.483,-0.623C0.483,-0.612 0.483,-0.601 0.482,-0.59L0.026,-0.59C0.027,-0.601 0.029,-0.612 0.03,-0.623C0.032,-0.634 0.034,-0.645 0.036,-0.656C0.065,-0.657 0.1,-0.658 0.139,-0.659C0.178,-0.66 0.218,-0.66 0.259,-0.66C0.3,-0.66 0.341,-0.66 0.38,-0.659C0.419,-0.658 0.454,-0.657 0.483,-0.656ZM0.986,-0.183L0.986,-0.144C0.986,-0.131 0.985,-0.117 0.984,-0.104L0.767,-0.104L0.59,-0.32L0.849,-0.565L0.985,-0.565C0.984,-0.548 0.982,-0.532 0.98,-0.516C0.978,-0.501 0.975,-0.486 0.972,-0.473L0.891,-0.473L0.76,-0.353C0.785,-0.326 0.809,-0.299 0.833,-0.27C0.857,-0.242 0.881,-0.213 0.905,-0.183L0.986,-0.183ZM0.972,-0C0.952,0.001 0.926,0.002 0.894,0.003C0.862,0.004 0.829,0.004 0.795,0.004C0.761,0.004 0.728,0.004 0.697,0.003C0.666,0.002 0.641,0.001 0.623,-0C0.592,-0.042 0.562,-0.084 0.531,-0.126C0.501,-0.169 0.472,-0.212 0.445,-0.256L0.405,-0.256L0.405,-0.172L0.477,-0.172L0.477,-0.138C0.477,-0.127 0.476,-0.115 0.475,-0.104L0.261,-0.104L0.261,-0.565L0.48,-0.565C0.479,-0.548 0.477,-0.532 0.475,-0.516C0.473,-0.501 0.47,-0.486 0.467,-0.473L0.405,-0.473L0.405,-0.385L0.516,-0.385L0.612,-0.473L0.525,-0.473C0.526,-0.488 0.526,-0.502 0.527,-0.517C0.528,-0.532 0.529,-0.548 0.53,-0.563L0.806,-0.563L0.55,-0.319L0.746,-0.078L0.982,-0.078C0.981,-0.064 0.979,-0.05 0.977,-0.037C0.976,-0.024 0.974,-0.011 0.972,-0ZM0.023,-0.104C0.024,-0.117 0.026,-0.131 0.027,-0.144C0.029,-0.157 0.031,-0.17 0.033,-0.183L0.094,-0.183L0.094,-0.473L0.019,-0.473C0.02,-0.488 0.02,-0.502 0.021,-0.517C0.022,-0.532 0.023,-0.548 0.024,-0.563L0.233,-0.563L0.233,-0.104L0.023,-0.104ZM0.461,-0C0.434,0.001 0.401,0.002 0.36,0.003C0.319,0.004 0.277,0.005 0.234,0.005C0.191,0.005 0.15,0.004 0.111,0.003C0.072,0.002 0.04,0.001 0.016,-0C0.017,-0.013 0.017,-0.025 0.018,-0.038C0.019,-0.051 0.02,-0.065 0.021,-0.078L0.473,-0.078C0.47,-0.051 0.466,-0.025 0.461,-0Z" style="fill:rgb(173,30,22);fill-rule:nonzero;"/>
        </g>
        <g transform="matrix(600,0,0,600,2639.68,639.191)">
            <path d="M0.444,-0.075C0.395,-0.075 0.354,-0.077 0.321,-0.08C0.288,-0.084 0.261,-0.09 0.24,-0.098C0.219,-0.107 0.204,-0.118 0.195,-0.132C0.186,-0.147 0.181,-0.165 0.181,-0.187C0.181,-0.217 0.187,-0.242 0.2,-0.262C0.213,-0.282 0.232,-0.299 0.255,-0.312C0.241,-0.323 0.226,-0.334 0.211,-0.345C0.196,-0.356 0.182,-0.369 0.169,-0.383C0.157,-0.398 0.147,-0.414 0.138,-0.431C0.13,-0.448 0.126,-0.468 0.126,-0.491C0.126,-0.522 0.133,-0.548 0.147,-0.571C0.162,-0.594 0.186,-0.614 0.221,-0.629C0.256,-0.644 0.302,-0.656 0.359,-0.664C0.417,-0.672 0.489,-0.676 0.575,-0.676C0.642,-0.676 0.699,-0.672 0.744,-0.665C0.789,-0.658 0.826,-0.648 0.853,-0.635C0.881,-0.622 0.901,-0.606 0.913,-0.587C0.925,-0.568 0.931,-0.547 0.931,-0.523C0.931,-0.507 0.929,-0.491 0.925,-0.475C0.921,-0.46 0.914,-0.445 0.905,-0.431L1.042,-0.431L1.042,-0.358L0.868,-0.358C0.865,-0.325 0.859,-0.294 0.85,-0.267C0.841,-0.24 0.831,-0.216 0.819,-0.196C0.807,-0.176 0.794,-0.16 0.781,-0.147C0.768,-0.135 0.756,-0.127 0.744,-0.124L0.746,-0.123C0.731,-0.128 0.716,-0.135 0.701,-0.144C0.687,-0.153 0.672,-0.163 0.657,-0.174L0.429,-0.35C0.414,-0.362 0.399,-0.373 0.384,-0.383C0.37,-0.393 0.357,-0.403 0.346,-0.413C0.335,-0.424 0.325,-0.435 0.318,-0.446C0.311,-0.458 0.308,-0.471 0.308,-0.485C0.308,-0.5 0.312,-0.513 0.319,-0.524C0.327,-0.536 0.34,-0.546 0.358,-0.553C0.377,-0.561 0.401,-0.567 0.432,-0.571C0.463,-0.576 0.503,-0.578 0.55,-0.578C0.594,-0.578 0.63,-0.575 0.659,-0.57C0.688,-0.565 0.712,-0.557 0.729,-0.547C0.746,-0.538 0.758,-0.526 0.765,-0.513C0.772,-0.5 0.776,-0.486 0.776,-0.47C0.776,-0.435 0.765,-0.404 0.742,-0.378C0.72,-0.353 0.685,-0.331 0.638,-0.314L0.751,-0.228C0.758,-0.241 0.764,-0.256 0.767,-0.273C0.771,-0.29 0.773,-0.307 0.773,-0.326C0.766,-0.324 0.756,-0.323 0.745,-0.323C0.734,-0.323 0.724,-0.324 0.715,-0.325C0.742,-0.34 0.763,-0.36 0.78,-0.384C0.797,-0.408 0.805,-0.439 0.805,-0.478C0.805,-0.495 0.801,-0.512 0.792,-0.527C0.784,-0.542 0.77,-0.556 0.75,-0.567C0.731,-0.579 0.705,-0.588 0.672,-0.595C0.64,-0.602 0.6,-0.605 0.552,-0.605C0.504,-0.604 0.463,-0.602 0.428,-0.597C0.394,-0.592 0.366,-0.585 0.344,-0.575C0.322,-0.565 0.306,-0.552 0.296,-0.537C0.286,-0.522 0.281,-0.503 0.281,-0.482C0.281,-0.466 0.285,-0.451 0.293,-0.438C0.301,-0.425 0.311,-0.412 0.324,-0.399C0.337,-0.387 0.352,-0.375 0.368,-0.363C0.385,-0.352 0.401,-0.34 0.417,-0.327L0.638,-0.153C0.648,-0.145 0.658,-0.137 0.669,-0.129C0.68,-0.122 0.692,-0.116 0.703,-0.111C0.689,-0.106 0.672,-0.101 0.653,-0.096C0.634,-0.091 0.613,-0.087 0.59,-0.084C0.568,-0.081 0.544,-0.079 0.519,-0.077C0.494,-0.076 0.469,-0.075 0.444,-0.075ZM0.702,-0.006C0.678,0.001 0.653,0.006 0.626,0.009C0.599,0.012 0.573,0.015 0.546,0.016C0.52,0.018 0.494,0.019 0.469,0.019C0.444,0.02 0.421,0.02 0.399,0.02C0.328,0.02 0.269,0.017 0.221,0.012C0.174,0.007 0.135,-0.002 0.106,-0.015C0.077,-0.028 0.057,-0.044 0.044,-0.064C0.032,-0.084 0.026,-0.109 0.026,-0.139C0.026,-0.179 0.041,-0.213 0.07,-0.242C0.1,-0.271 0.146,-0.292 0.209,-0.305C0.192,-0.292 0.178,-0.276 0.167,-0.259C0.157,-0.242 0.152,-0.217 0.152,-0.185C0.152,-0.159 0.157,-0.137 0.168,-0.12C0.179,-0.103 0.197,-0.089 0.22,-0.078C0.243,-0.067 0.273,-0.06 0.309,-0.055C0.346,-0.05 0.39,-0.048 0.441,-0.048C0.468,-0.048 0.496,-0.049 0.525,-0.051C0.554,-0.053 0.581,-0.056 0.608,-0.06C0.635,-0.064 0.66,-0.069 0.683,-0.074C0.707,-0.08 0.728,-0.087 0.745,-0.095C0.792,-0.076 0.841,-0.065 0.892,-0.064C0.944,-0.063 0.993,-0.068 1.038,-0.079C1.037,-0.063 1.035,-0.048 1.033,-0.034C1.032,-0.021 1.029,-0.009 1.026,-0C1.004,0.005 0.98,0.008 0.953,0.011C0.926,0.014 0.899,0.015 0.87,0.015C0.842,0.015 0.814,0.013 0.785,0.01C0.756,0.007 0.729,0.001 0.702,-0.006ZM1.041,-0.192C1.042,-0.181 1.042,-0.167 1.042,-0.152C1.042,-0.137 1.041,-0.122 1.04,-0.107C1.016,-0.102 0.993,-0.098 0.971,-0.095C0.95,-0.092 0.929,-0.091 0.908,-0.091C0.888,-0.092 0.867,-0.094 0.846,-0.097C0.825,-0.1 0.803,-0.106 0.78,-0.113C0.791,-0.121 0.803,-0.132 0.815,-0.145C0.828,-0.159 0.839,-0.175 0.85,-0.193C0.861,-0.212 0.87,-0.232 0.877,-0.255C0.885,-0.278 0.89,-0.304 0.893,-0.332L1.04,-0.332C1.039,-0.32 1.038,-0.308 1.036,-0.296C1.035,-0.285 1.033,-0.273 1.03,-0.26L0.967,-0.26C0.964,-0.249 0.961,-0.237 0.957,-0.224C0.953,-0.212 0.948,-0.2 0.942,-0.188C0.959,-0.187 0.976,-0.187 0.993,-0.188C1.01,-0.189 1.026,-0.191 1.041,-0.192ZM0.48,-0.463C0.48,-0.457 0.481,-0.451 0.482,-0.446C0.484,-0.441 0.487,-0.436 0.491,-0.431C0.496,-0.426 0.502,-0.419 0.511,-0.412C0.52,-0.405 0.531,-0.397 0.545,-0.386C0.582,-0.394 0.608,-0.404 0.623,-0.415C0.638,-0.427 0.646,-0.442 0.646,-0.459C0.646,-0.474 0.64,-0.486 0.627,-0.494C0.615,-0.503 0.595,-0.507 0.566,-0.507C0.509,-0.507 0.48,-0.492 0.48,-0.463ZM0.429,-0.14L0.455,-0.14C0.464,-0.14 0.473,-0.14 0.482,-0.141L0.331,-0.253C0.312,-0.24 0.303,-0.221 0.303,-0.196C0.303,-0.175 0.313,-0.161 0.333,-0.152C0.353,-0.144 0.385,-0.14 0.429,-0.14Z" style="fill:rgb(251,223,89);fill-rule:nonzero;"/>
        </g>
        <g transform="matrix(600,0,0,600,731.982,1239.19)">
            <path d="M0.438,0.008C0.401,0.008 0.364,0.008 0.326,0.007C0.288,0.007 0.25,0.007 0.213,0.006C0.176,0.006 0.141,0.005 0.107,0.004C0.074,0.003 0.043,0.002 0.016,-0C0.017,-0.013 0.017,-0.025 0.018,-0.038C0.019,-0.051 0.02,-0.065 0.021,-0.078L0.551,-0.078C0.618,-0.078 0.667,-0.089 0.698,-0.111C0.729,-0.134 0.745,-0.167 0.745,-0.212C0.745,-0.226 0.742,-0.24 0.737,-0.254C0.732,-0.269 0.724,-0.282 0.711,-0.293C0.699,-0.304 0.683,-0.314 0.662,-0.322C0.642,-0.33 0.617,-0.335 0.587,-0.336C0.628,-0.34 0.66,-0.354 0.684,-0.377C0.709,-0.4 0.721,-0.434 0.721,-0.479C0.721,-0.495 0.718,-0.51 0.712,-0.523C0.707,-0.537 0.697,-0.549 0.683,-0.558C0.67,-0.568 0.651,-0.576 0.628,-0.581C0.605,-0.587 0.577,-0.59 0.542,-0.59L0.02,-0.59C0.021,-0.601 0.023,-0.612 0.024,-0.623C0.026,-0.634 0.028,-0.645 0.03,-0.656C0.074,-0.658 0.129,-0.659 0.194,-0.66C0.259,-0.661 0.341,-0.661 0.438,-0.661C0.532,-0.661 0.607,-0.658 0.664,-0.652C0.721,-0.647 0.764,-0.638 0.795,-0.625C0.826,-0.613 0.846,-0.597 0.856,-0.576C0.866,-0.556 0.871,-0.531 0.871,-0.501C0.871,-0.472 0.866,-0.448 0.856,-0.429C0.846,-0.41 0.833,-0.395 0.817,-0.383C0.801,-0.372 0.783,-0.363 0.762,-0.357C0.741,-0.351 0.72,-0.347 0.699,-0.345L0.699,-0.342C0.739,-0.337 0.772,-0.331 0.797,-0.322C0.823,-0.314 0.843,-0.304 0.858,-0.291C0.873,-0.279 0.884,-0.265 0.889,-0.248C0.895,-0.232 0.898,-0.214 0.898,-0.193C0.898,-0.154 0.892,-0.122 0.88,-0.096C0.868,-0.071 0.845,-0.05 0.812,-0.034C0.779,-0.019 0.732,-0.008 0.672,-0.001C0.612,0.005 0.534,0.008 0.438,0.008ZM0.26,-0.104L0.26,-0.565L0.542,-0.565C0.572,-0.565 0.597,-0.563 0.616,-0.558C0.636,-0.553 0.652,-0.547 0.663,-0.538C0.674,-0.529 0.682,-0.519 0.686,-0.508C0.691,-0.497 0.693,-0.484 0.693,-0.471C0.693,-0.44 0.681,-0.413 0.658,-0.389C0.635,-0.365 0.595,-0.35 0.54,-0.344L0.54,-0.323C0.573,-0.321 0.601,-0.317 0.623,-0.311C0.646,-0.305 0.664,-0.297 0.677,-0.288C0.691,-0.279 0.701,-0.268 0.706,-0.255C0.712,-0.242 0.715,-0.229 0.715,-0.214C0.715,-0.174 0.703,-0.146 0.678,-0.129C0.653,-0.112 0.612,-0.104 0.553,-0.104L0.26,-0.104ZM0.023,-0.104C0.024,-0.117 0.026,-0.131 0.027,-0.144C0.029,-0.157 0.031,-0.17 0.033,-0.183L0.094,-0.182L0.094,-0.473L0.013,-0.473C0.014,-0.488 0.014,-0.502 0.015,-0.517C0.016,-0.532 0.017,-0.548 0.018,-0.563L0.232,-0.563L0.232,-0.104L0.023,-0.104ZM0.405,-0.48L0.405,-0.384L0.448,-0.384C0.473,-0.384 0.492,-0.385 0.506,-0.386C0.521,-0.387 0.532,-0.39 0.539,-0.393C0.546,-0.397 0.551,-0.402 0.553,-0.408C0.556,-0.414 0.557,-0.422 0.557,-0.432C0.557,-0.439 0.556,-0.445 0.554,-0.451C0.552,-0.457 0.547,-0.462 0.54,-0.466C0.533,-0.471 0.523,-0.474 0.51,-0.476C0.497,-0.479 0.48,-0.48 0.459,-0.48L0.405,-0.48ZM0.459,-0.177C0.483,-0.177 0.502,-0.178 0.516,-0.179C0.53,-0.181 0.541,-0.184 0.548,-0.188C0.556,-0.192 0.561,-0.197 0.563,-0.203C0.566,-0.209 0.567,-0.216 0.567,-0.224C0.567,-0.232 0.566,-0.239 0.563,-0.244C0.561,-0.249 0.556,-0.253 0.547,-0.256C0.539,-0.259 0.527,-0.262 0.511,-0.263C0.496,-0.264 0.475,-0.265 0.448,-0.265L0.405,-0.265L0.405,-0.178C0.414,-0.177 0.423,-0.177 0.432,-0.177L0.459,-0.177Z" style="fill:rgb(61,191,221);fill-rule:nonzero;"/>
        </g>
        <g transform="matrix(600,0,0,600,1279.18,1239.19)">
            <path d="M0.405,-0.473L0.405,-0.356L0.448,-0.356C0.471,-0.356 0.489,-0.357 0.503,-0.359C0.518,-0.362 0.529,-0.366 0.537,-0.371C0.545,-0.376 0.55,-0.383 0.553,-0.392C0.556,-0.401 0.557,-0.411 0.557,-0.424C0.557,-0.433 0.556,-0.44 0.554,-0.446C0.552,-0.453 0.547,-0.458 0.54,-0.462C0.533,-0.466 0.523,-0.469 0.51,-0.47C0.497,-0.472 0.48,-0.473 0.459,-0.473L0.405,-0.473ZM0.905,-0.181C0.905,-0.168 0.905,-0.155 0.904,-0.142C0.904,-0.129 0.904,-0.116 0.903,-0.103C0.866,-0.1 0.833,-0.1 0.806,-0.101C0.779,-0.102 0.753,-0.109 0.73,-0.12C0.707,-0.132 0.685,-0.151 0.664,-0.177C0.643,-0.204 0.621,-0.241 0.597,-0.288C0.64,-0.303 0.674,-0.324 0.697,-0.351C0.721,-0.378 0.733,-0.41 0.733,-0.446C0.733,-0.47 0.73,-0.491 0.723,-0.509C0.717,-0.527 0.705,-0.542 0.688,-0.554C0.671,-0.566 0.646,-0.575 0.614,-0.581C0.583,-0.587 0.542,-0.59 0.492,-0.59L0.02,-0.59C0.021,-0.601 0.023,-0.612 0.024,-0.623C0.026,-0.634 0.028,-0.645 0.03,-0.656C0.074,-0.658 0.129,-0.659 0.194,-0.66C0.259,-0.661 0.341,-0.661 0.438,-0.661C0.529,-0.661 0.603,-0.658 0.66,-0.652C0.717,-0.646 0.762,-0.636 0.794,-0.621C0.826,-0.606 0.848,-0.587 0.859,-0.562C0.87,-0.537 0.876,-0.506 0.876,-0.469C0.876,-0.418 0.864,-0.379 0.839,-0.352C0.814,-0.325 0.781,-0.306 0.739,-0.295C0.751,-0.279 0.762,-0.265 0.773,-0.252C0.784,-0.239 0.795,-0.228 0.808,-0.218C0.821,-0.209 0.835,-0.201 0.85,-0.194C0.865,-0.188 0.884,-0.184 0.905,-0.181ZM0.777,0.012C0.732,0.012 0.694,0.009 0.663,0.004C0.632,-0.001 0.605,-0.011 0.581,-0.028C0.558,-0.045 0.536,-0.071 0.515,-0.104C0.495,-0.137 0.473,-0.182 0.45,-0.238L0.405,-0.238L0.405,-0.165L0.467,-0.165L0.467,-0.134C0.467,-0.124 0.467,-0.114 0.466,-0.104L0.265,-0.104L0.265,-0.565L0.492,-0.565C0.537,-0.565 0.574,-0.562 0.601,-0.557C0.629,-0.552 0.65,-0.545 0.665,-0.535C0.68,-0.525 0.69,-0.512 0.695,-0.497C0.7,-0.482 0.702,-0.465 0.702,-0.446C0.702,-0.432 0.699,-0.418 0.694,-0.404C0.689,-0.39 0.68,-0.377 0.669,-0.364C0.658,-0.351 0.643,-0.34 0.625,-0.329C0.607,-0.318 0.585,-0.31 0.56,-0.303C0.585,-0.247 0.609,-0.203 0.633,-0.171C0.657,-0.139 0.682,-0.115 0.708,-0.1C0.735,-0.085 0.764,-0.077 0.795,-0.075C0.826,-0.073 0.862,-0.074 0.901,-0.077C0.9,-0.064 0.898,-0.052 0.896,-0.039C0.895,-0.027 0.893,-0.015 0.89,-0.002C0.878,0.001 0.862,0.004 0.843,0.007C0.824,0.01 0.802,0.012 0.777,0.012ZM0.023,-0.104C0.024,-0.117 0.026,-0.131 0.027,-0.144C0.029,-0.157 0.031,-0.17 0.033,-0.183L0.094,-0.183L0.094,-0.473L0.013,-0.473C0.014,-0.488 0.014,-0.502 0.015,-0.517C0.016,-0.532 0.017,-0.548 0.018,-0.563L0.237,-0.563L0.237,-0.104L0.023,-0.104ZM0.453,-0C0.436,0.001 0.415,0.001 0.391,0.002C0.367,0.003 0.341,0.004 0.314,0.004C0.287,0.005 0.259,0.005 0.23,0.005C0.201,0.005 0.174,0.005 0.147,0.004C0.12,0.004 0.096,0.004 0.073,0.003C0.05,0.002 0.031,0.001 0.016,-0C0.017,-0.013 0.017,-0.025 0.018,-0.038C0.019,-0.051 0.02,-0.065 0.021,-0.078L0.464,-0.078C0.463,-0.065 0.461,-0.052 0.459,-0.039C0.458,-0.026 0.456,-0.013 0.453,-0Z" style="fill:rgb(61,191,221);fill-rule:nonzero;"/>
        </g>
        <g transform="matrix(600,0,0,600,1831.78,1239.19)">
            <path d="M0.556,-0.228C0.573,-0.229 0.591,-0.23 0.61,-0.23C0.629,-0.231 0.648,-0.231 0.667,-0.232L0.667,-0.104L0.258,-0.104L0.258,-0.565L0.665,-0.565L0.665,-0.428C0.646,-0.428 0.626,-0.428 0.607,-0.429C0.588,-0.43 0.57,-0.431 0.552,-0.432L0.55,-0.496L0.396,-0.496L0.396,-0.389L0.673,-0.389C0.675,-0.365 0.675,-0.345 0.674,-0.329C0.673,-0.314 0.67,-0.296 0.666,-0.276L0.396,-0.276L0.396,-0.165L0.547,-0.165L0.556,-0.228ZM0.81,-0C0.797,0.001 0.776,0.001 0.749,0.002C0.722,0.003 0.691,0.003 0.655,0.003C0.619,0.004 0.58,0.004 0.537,0.004C0.495,0.005 0.452,0.005 0.409,0.005C0.366,0.005 0.323,0.005 0.281,0.004C0.239,0.004 0.2,0.004 0.165,0.003C0.13,0.003 0.099,0.003 0.072,0.002C0.046,0.001 0.027,0.001 0.016,-0C0.017,-0.013 0.017,-0.025 0.018,-0.038C0.019,-0.051 0.02,-0.065 0.021,-0.078L0.693,-0.078L0.693,-0.232C0.714,-0.232 0.734,-0.232 0.754,-0.231C0.774,-0.23 0.793,-0.229 0.81,-0.228C0.811,-0.205 0.811,-0.184 0.811,-0.166C0.812,-0.148 0.812,-0.131 0.812,-0.114C0.812,-0.097 0.812,-0.08 0.811,-0.062C0.811,-0.044 0.811,-0.023 0.81,-0ZM0.023,-0.104C0.024,-0.117 0.026,-0.131 0.027,-0.144C0.029,-0.157 0.031,-0.17 0.033,-0.183L0.094,-0.183L0.094,-0.474L0.012,-0.474C0.013,-0.489 0.013,-0.503 0.014,-0.518C0.015,-0.533 0.016,-0.548 0.017,-0.563L0.23,-0.563L0.23,-0.104L0.023,-0.104ZM0.794,-0.432C0.777,-0.431 0.76,-0.43 0.743,-0.429C0.726,-0.429 0.708,-0.429 0.691,-0.428L0.691,-0.59L0.019,-0.59C0.02,-0.601 0.022,-0.612 0.023,-0.623C0.025,-0.634 0.027,-0.645 0.029,-0.656C0.058,-0.657 0.093,-0.658 0.135,-0.659C0.177,-0.66 0.222,-0.661 0.271,-0.661C0.32,-0.662 0.37,-0.662 0.421,-0.662C0.473,-0.662 0.523,-0.662 0.572,-0.661C0.621,-0.661 0.666,-0.66 0.707,-0.659C0.749,-0.658 0.785,-0.657 0.814,-0.656C0.814,-0.633 0.813,-0.612 0.812,-0.594C0.811,-0.577 0.81,-0.56 0.808,-0.543C0.807,-0.526 0.805,-0.509 0.802,-0.491C0.799,-0.474 0.797,-0.454 0.794,-0.432Z" style="fill:rgb(61,191,221);fill-rule:nonzero;"/>
        </g>
        <g transform="matrix(600,0,0,600,2332.18,1239.19)">
            <path d="M0.463,-0.656L0.463,-0.619C0.463,-0.606 0.462,-0.593 0.461,-0.58L0.015,-0.58C0.016,-0.593 0.018,-0.606 0.019,-0.619C0.021,-0.632 0.023,-0.644 0.026,-0.656C0.053,-0.657 0.086,-0.658 0.125,-0.659C0.164,-0.66 0.203,-0.66 0.244,-0.66C0.285,-0.66 0.325,-0.66 0.364,-0.659C0.403,-0.658 0.436,-0.657 0.463,-0.656ZM1.301,-0.656L1.301,-0.619C1.301,-0.606 1.3,-0.593 1.299,-0.58L0.913,-0.58C0.914,-0.593 0.916,-0.606 0.917,-0.619C0.919,-0.632 0.921,-0.645 0.924,-0.656C0.953,-0.657 0.983,-0.658 1.015,-0.659C1.047,-0.66 1.079,-0.66 1.112,-0.66C1.145,-0.66 1.178,-0.66 1.21,-0.659C1.242,-0.658 1.272,-0.657 1.301,-0.656ZM0.47,-0.105L0.342,-0.105L0.222,-0.554L0.459,-0.554C0.458,-0.539 0.456,-0.525 0.454,-0.511C0.453,-0.498 0.451,-0.485 0.449,-0.473L0.381,-0.473L0.428,-0.234L0.54,-0.652C0.564,-0.654 0.589,-0.655 0.616,-0.656C0.643,-0.657 0.669,-0.657 0.694,-0.657C0.72,-0.657 0.745,-0.657 0.768,-0.656C0.791,-0.655 0.812,-0.654 0.83,-0.652L0.933,-0.228L0.984,-0.473L0.908,-0.473C0.908,-0.499 0.909,-0.526 0.911,-0.554L1.115,-0.554L0.995,-0.105L0.847,-0.105L0.719,-0.58L0.608,-0.58L0.47,-0.105ZM1.092,-0C1.072,0.003 1.046,0.006 1.014,0.007C0.983,0.009 0.949,0.01 0.914,0.01C0.879,0.01 0.845,0.009 0.81,0.007C0.776,0.006 0.746,0.003 0.721,-0L0.642,-0.305L0.554,-0C0.534,0.003 0.509,0.006 0.48,0.007C0.451,0.009 0.421,0.01 0.389,0.01C0.357,0.01 0.325,0.009 0.293,0.007C0.261,0.006 0.232,0.003 0.207,-0L0.068,-0.473L0.009,-0.473C0.01,-0.486 0.01,-0.5 0.01,-0.513C0.011,-0.526 0.012,-0.54 0.013,-0.553L0.188,-0.553L0.319,-0.078L0.493,-0.078L0.631,-0.553L0.696,-0.553L0.824,-0.078L1.018,-0.078L1.149,-0.553L1.297,-0.553C1.294,-0.524 1.29,-0.497 1.285,-0.473L1.236,-0.473L1.092,-0Z" style="fill:rgb(61,191,221);fill-rule:nonzero;"/>
        </g>
    </g>
</svg>
